PathFileType	4	(X/Y/Z)	D:\Share\Shared_Data\Ergonomics\Sit To Stand Pertubation\S0\Perturbed STS.trc
DataRate	CameraRate	NumFrames	NumMarkers	Units	OrigDataRate	OrigDataStartFrame	OrigNumFrames	
100	100	6	18	m	100	17498	251
Frame#	Time	R_Heel			R_ASIS			R_Pelvis			V_Sacral			L_Pelvis			L_ASIS			Clavical			R_Acromium			L_Acromium			Sternum			Torso			R_Thigh_Med			R_Thigh_Lat			R_Thigh			R_Shank_Med			R_Shank_Lat			R_Shank			R_Toe			
		X1	Y1	Z1	X2	Y2	Z2	X3	Y3	Z3	X4	Y4	Z4	X5	Y5	Z5	X6	Y6	Z6	X7	Y7	Z7	X8	Y8	Z8	X9	Y9	Z9	X10	Y10	Z10	X11	Y11	Z11	X12	Y12	Z12	X13	Y13	Z13	X14	Y14	Z14	X15	Y15	Z15	X16	Y16	Z16	X17	Y17	Z17	X18	Y18	Z18	

17498	131.32	0.15392245	0.043927551	0.11237313	0.02884952	0.73767352	0.14829431	-0.099918716	0.7462655	0.18938013	-0.22283649	0.73393463	-0.041619507	-0.072883469	0.72744135	-0.21738686	0.050982487	0.71708789	-0.1685795	0.22780338	1.0221028	-0.023278696	0.19107669	1.1192604	0.11221997	0.18279535	1.1243829	-0.17285654	0.20625052	0.9276814	-0.040733883	0.20782042	0.97947272	-0.14381487	0.32673642	0.48380569	0.056057083	0.31405923	0.50016473	0.19031842	0.24666322	0.63953021	0.10832476	0.25613678	0.10155619	0.071963486	0.19687521	0.08612603	0.1604431	0.26651443	0.30433444	0.19233911	0.37926233	0.04745731	0.11073673
17499	131.33	0.15399385	0.043845512	0.11229086	0.031366079	0.73801019	0.14817522	-0.09702562	0.74785443	0.18937712	-0.22024968	0.73669421	-0.041647324	-0.070196465	0.7287583	-0.21748975	0.053548389	0.71669025	-0.16864101	0.23494902	1.0190175	-0.023187906	0.19943457	1.1166509	0.11197128	0.19103484	1.122145	-0.17261269	0.21245209	0.92495264	-0.040858501	0.21444261	0.97696033	-0.14383821	0.3272442	0.48364694	0.055868011	0.31469684	0.4999711	0.19015268	0.24771225	0.63967767	0.10821562	0.25627081	0.10136467	0.071787491	0.19700589	0.086023941	0.16028059	0.26691281	0.30414352	0.1921633	0.37944897	0.047388744	0.11071176
17500	131.34	0.15407735	0.043763168	0.11220511	0.033977955	0.73840637	0.14804332	-0.094016441	0.74954065	0.18936189	-0.21753966	0.73959399	-0.041680695	-0.06739949	0.73018549	-0.21759903	0.056157745	0.71637805	-0.16875937	0.2421673	1.0160027	-0.023087395	0.2078042	1.1140988	0.11170155	0.19933322	1.119954	-0.17234421	0.21877243	0.92229114	-0.040983135	0.22114967	0.97452209	-0.14384979	0.32775018	0.48347931	0.055597569	0.31535837	0.49980051	0.18989987	0.24881723	0.63985107	0.10799706	0.25641714	0.10116085	0.071593437	0.19715059	0.085929329	0.16011137	0.26733484	0.30395743	0.19193059	0.37965454	0.047319492	0.11067089
17501	131.35	0.15416785	0.043677746	0.11211658	0.036683685	0.73885858	0.14790263	-0.090885712	0.75133087	0.18932883	-0.21470296	0.74263562	-0.041721272	-0.0644897	0.73172827	-0.21771901	0.058803883	0.71617596	-0.16896164	0.24943584	1.0130824	-0.022969606	0.21617085	1.1116343	0.11142162	0.20766747	1.1178298	-0.17204559	0.2251964	0.91971686	-0.041100563	0.22790616	0.97217572	-0.14383389	0.32825516	0.48329977	0.05523473	0.31603949	0.4996496	0.18955135	0.2499818	0.64003821	0.10765211	0.25656989	0.10094408	0.071381447	0.19730598	0.085844536	0.15993762	0.26778207	0.30377893	0.1916349	0.37987488	0.047249657	0.11061187
17502	131.36	0.15425946	0.043587727	0.1120265	0.039491352	0.73936334	0.14776134	-0.087629524	0.75323236	0.18927176	-0.21173824	0.74581494	-0.041771709	-0.061464603	0.73338776	-0.21785513	0.061484592	0.71610791	-0.16928064	0.25672821	1.0102803	-0.0228281	0.22451648	1.1092823	0.11114307	0.21601085	1.1157898	-0.17171083	0.23170403	0.91724884	-0.041203007	0.23466954	0.96993854	-0.14377455	0.32876498	0.48310492	0.054767841	0.31674179	0.49951361	0.18909846	0.25121138	0.64022455	0.10716991	0.25672382	0.10071412	0.071151497	0.19746954	0.085771721	0.15975951	0.26825739	0.30361035	0.19127164	0.38010544	0.047178883	0.11053342
17503	131.37	0.15434668	0.043493275	0.11193616	0.042412483	0.73991974	0.14762831	-0.084245842	0.75525073	0.18918439	-0.20864587	0.74912122	-0.041835308	-0.058322914	0.73516132	-0.21801282	0.064202789	0.71618903	-0.16975175	0.26401443	1.00762	-0.022657961	0.23281772	1.107066	0.11087643	0.2243325	1.1138514	-0.17133437	0.23827142	0.91490619	-0.041282711	0.24139691	0.96782843	-0.14365738	0.32929153	0.48289218	0.054185009	0.31747736	0.49938931	0.18853221	0.25251257	0.64039526	0.10654588	0.25687473	0.10047155	0.070903397	0.19763997	0.085713043	0.159575	0.26876709	0.30345398	0.19083759	0.38034052	0.047106483	0.11043516
